<svg xmlns="http://www.w3.org/2000/svg" width="19.363" height="19.363" viewBox="0 0 19.363 19.363">
  <g id="wallet" transform="translate(-0.003 0)">
    <g id="Group_37189" data-name="Group 37189" transform="translate(0.003 0)">
      <g id="Group_37188" data-name="Group 37188" transform="translate(0 0)">
        <path id="Path_26" data-name="Path 26" d="M18.486,9.763V7.041A1.757,1.757,0,0,0,16.866,5.3L14.339.881A1.742,1.742,0,0,0,11.949.237L3.285,5.281H1.763A1.762,1.762,0,0,0,0,7.041V17.6a1.762,1.762,0,0,0,1.76,1.76H16.726a1.762,1.762,0,0,0,1.76-1.76V14.882a1.318,1.318,0,0,0,.88-1.239V11A1.318,1.318,0,0,0,18.486,9.763ZM15.843,5.281H12.008l2.877-1.675ZM12.392,1A.851.851,0,0,1,13.046.91a.863.863,0,0,1,.529.409v0l-6.8,3.961H5.034Zm5.214,6.044v2.64c-4.1,0-4.1,5.281,0,5.281Z" transform="translate(-0.003 0)" fill="#ff792c"/>
        <path id="Path_262" data-name="Path 262" d="M-2.676,0H.975a1,1,0,0,1,1,1V3.651a1,1,0,0,1-1,1H-2.676A2.324,2.324,0,0,1-5,2.324,2.324,2.324,0,0,1-2.676,0Z" transform="translate(17.005 10.069)" fill="#fff"/>
        <path id="Path_27" data-name="Path 27" d="M342.2,277.341a.868.868,0,1,0,.868.868A.869.869,0,0,0,342.2,277.341Z" transform="translate(-328.009 -265.816)" fill="#ff792c"/>
      </g>
    </g>
  </g>
</svg>
